<?xml version="1.0" encoding="utf-8"?>
<!-- Generator: Adobe Illustrator 27.1.0, SVG Export Plug-In . SVG Version: 6.00 Build 0)  -->
<svg version="1.1" id="Layer_1" xmlns="http://www.w3.org/2000/svg" xmlns:xlink="http://www.w3.org/1999/xlink" x="0px" y="0px"
	 viewBox="0 0 396.9 93.5" style="enable-background:new 0 0 396.9 93.5;" xml:space="preserve">
<style type="text/css">
	.st0{font-family:'GFSNeohellenic-Regular';}
	.st1{font-size:10px;}
	.st2{fill:none;stroke:#000000;stroke-miterlimit:10;}
	.st3{fill:none;stroke:#000000;stroke-width:2;stroke-miterlimit:10;}
	.st4{fill:none;stroke:#000000;stroke-width:0.8914;stroke-miterlimit:10;stroke-dasharray:5.3482;}
</style>
<g>
	<g>
		<text transform="matrix(1 0 0 1 42.4793 54.4842)" class="st0 st1">Μικροκυματική</text>
		<text transform="matrix(1 0 0 1 52.7693 66.484)" class="st0 st1">Γεννήτρια</text>
		<rect x="39.6" y="43.9" class="st2" width="65.5" height="28.1"/>
	</g>
	<rect x="209.9" y="44" class="st2" width="39.7" height="28.1"/>
	<g>
		<text transform="matrix(1 0 0 1 215.0354 53.6328)" class="st0 st1">Γραμμή</text>
		<text transform="matrix(1 0 0 1 212.4355 65.6327)" class="st0 st1">Εγκοπής</text>
	</g>
	<line class="st3" x1="186.4" y1="58" x2="209.9" y2="58"/>
	<line class="st3" x1="105.1" y1="57.9" x2="128.5" y2="57.9"/>
	<polygon points="234,38.3 229.5,44 225.5,38.3 228.3,38.3 228.3,15.6 231.1,15.6 231.1,38.3 	"/>
	<polygon points="245.3,39.7 245.3,36.9 251,38.4 	"/>
	<line class="st2" x1="245.3" y1="38.3" x2="236.8" y2="38.3"/>
	<polygon points="214.1,36.9 214.1,39.7 208.5,38.2 	"/>
	<line class="st2" x1="214.1" y1="38.3" x2="222.6" y2="38.3"/>
	<g>
		<rect x="200" y="1.4" class="st2" width="59.5" height="14.2"/>
	</g>
	<text transform="matrix(1 0 0 1 202.4761 11.1321)" class="st0 st1">Παλμογράφος</text>
	<g>
		<rect x="292.1" y="50.9" class="st2" width="34" height="14.2"/>
	</g>
	<text transform="matrix(1 0 0 1 295.1104 60.6333)" class="st0 st1">Φορτίο</text>
	<g>
		<rect x="292.1" y="70.4" class="st2" width="65.2" height="14.2"/>
	</g>
	<text transform="matrix(1 0 0 1 294.1917 80.0617)" class="st0 st1">Βραχυκύκλωμα</text>
	<line class="st3" x1="249.6" y1="58" x2="292.1" y2="58"/>
	<line class="st3" x1="292.1" y1="77.5" x2="275.3" y2="77.5"/>
	<g>
		<g>
			<rect x="128.5" y="50.8" class="st2" width="57.9" height="14.2"/>
		</g>
		<text transform="matrix(1 0 0 1 130.7463 60.4635)" class="st0 st1">Κυματοδηγός</text>
	</g>
	<line class="st4" x1="275.3" y1="90.7" x2="275.3" y2="2.9"/>
</g>
</svg>
